<svg xmlns="http://www.w3.org/2000/svg" fill="none" viewBox="10.98 9.76 84.82 55.2">
<path d="M88.245 38.1307C88.1087 36.7557 87.5234 35.6875 86.4893 34.9261C85.4553 34.1648 84.0518 33.7841 82.2791 33.7841C81.0746 33.7841 80.0575 33.9545 79.228 34.2955C78.3984 34.625 77.7621 35.0852 77.3189 35.6761C76.8871 36.267 76.6712 36.9375 76.6712 37.6875C76.6484 38.3125 76.7791 38.858 77.0632 39.3239C77.3587 39.7898 77.7621 40.1932 78.2734 40.5341C78.7848 40.8636 79.3757 41.1534 80.0462 41.4034C80.7166 41.642 81.4325 41.8466 82.1939 42.017L85.3303 42.767C86.853 43.108 88.2507 43.5625 89.5234 44.1307C90.7962 44.6989 91.8984 45.3977 92.8303 46.2273C93.7621 47.0568 94.4837 48.0341 94.995 49.1591C95.5178 50.2841 95.7848 51.5739 95.7962 53.0284C95.7848 55.1648 95.2393 57.017 94.1598 58.5852C93.0916 60.142 91.5462 61.3523 89.5234 62.2159C87.5121 63.0682 85.0859 63.4943 82.245 63.4943C79.4268 63.4943 76.9723 63.0625 74.8814 62.1989C72.8018 61.3352 71.1768 60.0568 70.0064 58.3636C68.8473 56.6591 68.2393 54.5511 68.1825 52.0398H75.3246C75.4041 53.2102 75.7393 54.1875 76.3303 54.9716C76.9325 55.7443 77.7337 56.3295 78.7337 56.7273C79.745 57.1136 80.8871 57.3068 82.1598 57.3068C83.4098 57.3068 84.495 57.125 85.4155 56.7614C86.3473 56.3977 87.0689 55.892 87.5803 55.2443C88.0916 54.5966 88.3473 53.8523 88.3473 53.0114C88.3473 52.2273 88.1143 51.5682 87.6484 51.0341C87.1939 50.5 86.5234 50.0455 85.6371 49.6705C84.7621 49.2955 83.6882 48.9545 82.4155 48.6477L78.6143 47.6932C75.6712 46.9773 73.3473 45.858 71.6428 44.3352C69.9382 42.8125 69.0916 40.7614 69.103 38.1818C69.0916 36.0682 69.6541 34.2216 70.7905 32.642C71.9382 31.0625 73.5121 29.8295 75.5121 28.9432C77.5121 28.0568 79.7848 27.6136 82.3303 27.6136C84.9212 27.6136 87.1825 28.0568 89.1143 28.9432C91.0575 29.8295 92.5689 31.0625 93.6484 32.642C94.728 34.2216 95.2848 36.0511 95.3189 38.1307H88.245Z" fill="#2B3467"/>
<path d="M60.495 46V11.0909H74.2678C76.9155 11.0909 79.1712 11.5966 81.0348 12.608C82.8984 13.608 84.3189 15 85.2962 16.7841C86.2848 18.5568 86.7791 20.6023 86.7791 22.9205C86.7791 25.2386 86.2791 27.2841 85.2791 29.0568C84.2791 30.8295 82.8303 32.2102 80.9325 33.1989C79.0462 34.1875 76.7621 34.6818 74.0803 34.6818H65.3018V28.767H72.8871C74.3075 28.767 75.478 28.5227 76.3984 28.0341C77.3303 27.5341 78.0234 26.8466 78.478 25.9716C78.9439 25.0852 79.1768 24.0682 79.1768 22.9205C79.1768 21.7614 78.9439 20.75 78.478 19.8864C78.0234 19.0114 77.3303 18.3352 76.3984 17.858C75.4666 17.3693 74.2848 17.125 72.853 17.125H67.8757V46H60.495Z" fill="#EB455F"/>
<path d="M55.9808 13L55.9808 64.9615L10.9808 38.9808L55.9808 13Z" fill="#EB455F"/>
<path d="M11.7645 46.5069L48.5069 9.76456L61.9555 59.9555L11.7645 46.5069Z" fill="#2B3467"/>
</svg>